<svg width="128" height="128" viewBox="0 0 128 128" fill="none" xmlns="http://www.w3.org/2000/svg">
  <path d="M126.025 64.0001C126.025 29.7501 98.25 1.9751 64 1.9751C29.75 1.9751 1.97498 29.7501 1.97498 64.0001C1.97498 98.2501 29.75 126.025 64 126.025C98.25 126.025 126.025 98.2501 126.025 64.0001Z" fill="#4DE35D" />
  <path d="M98.15 43.2251C96.7 39.4501 93.725 40.0501 90.5 40.7001C88.575 41.1001 80 43.6001 66.475 57.9001C60.85 63.8251 57.15 68.5501 54.7 72.1501C53.2 70.3251 51.5 68.3501 49.7 66.5751C44.175 61.0501 38 57.2501 37.75 57.1001C35.175 55.5251 31.8 56.3251 30.2 58.9251C28.625 61.5001 29.425 64.8751 32 66.4751C32.05 66.5001 37.35 69.7751 41.9 74.3501C46.55 79.0001 50.775 85.3001 50.825 85.3751C51.85 86.9251 53.575 87.8251 55.4 87.8251C55.7 87.8251 56.025 87.8001 56.35 87.7501C58.5 87.3751 60.2 85.7751 60.725 83.6751C60.75 83.6251 62.925 77.6001 74.4 65.5001C83.65 55.7251 89.825 52.6251 91.975 51.7751C92 51.7751 92 51.7751 92.05 51.7751C92.05 51.7751 92.125 51.7501 92.25 51.6751C92.625 51.5251 92.825 51.4751 92.825 51.4751C92.725 51.5001 92.675 51.5001 92.675 51.5001V51.4751C93.675 51.0501 95.525 50.2501 95.55 50.2251C98.325 49.0251 99.25 46.0251 98.15 43.2251Z" fill="white" />
</svg>
  