<svg width="16" height="16" viewBox="0 0 16 16" fill="none" xmlns="http://www.w3.org/2000/svg">
  <path d="M6.74462 11.9911H1.92188" stroke="#010206" stroke-width="1.5" stroke-linecap="round" stroke-linejoin="round" />
  <path fill-rule="evenodd" clip-rule="evenodd" d="M14.0785 11.991C14.0785 13.0514 13.2189 13.911 12.1585 13.911C11.0981 13.911 10.2385 13.0514 10.2385 11.991C10.2385 10.9299 11.0981 10.071 12.1585 10.071C13.2189 10.071 14.0785 10.9299 14.0785 11.991Z" stroke="#010206" stroke-width="1.5" stroke-linecap="round" stroke-linejoin="round" />
  <path d="M9.25513 4.17475H14.0787" stroke="#010206" stroke-width="1.5" stroke-linecap="round" stroke-linejoin="round" />
  <path fill-rule="evenodd" clip-rule="evenodd" d="M1.92163 4.17476C1.92163 5.23594 2.78124 6.09476 3.84163 6.09476C4.90202 6.09476 5.76163 5.23594 5.76163 4.17476C5.76163 3.11437 4.90202 2.25476 3.84163 2.25476C2.78124 2.25476 1.92163 3.11437 1.92163 4.17476Z" stroke="#010206" stroke-width="1.5" stroke-linecap="round" stroke-linejoin="round" />
</svg>
  