<svg width="20" height="18" viewBox="0 0 20 18" fill="none" xmlns="http://www.w3.org/2000/svg">
  <path d="M8.2741 14.4877H1.64282" stroke="#F9FBFD" stroke-width="1.5" stroke-linecap="round" stroke-linejoin="round" />
  <path fill-rule="evenodd" clip-rule="evenodd" d="M18.3581 14.4877C18.3581 15.9457 17.1762 17.1277 15.7181 17.1277C14.2601 17.1277 13.0781 15.9457 13.0781 14.4877C13.0781 13.0285 14.2601 11.8477 15.7181 11.8477C17.1762 11.8477 18.3581 13.0285 18.3581 14.4877Z" stroke="#F9FBFD" stroke-width="1.5" stroke-linecap="round" stroke-linejoin="round" />
  <path d="M11.7258 3.74039H18.3582" stroke="#F9FBFD" stroke-width="1.5" stroke-linecap="round" stroke-linejoin="round" />
  <path fill-rule="evenodd" clip-rule="evenodd" d="M1.64233 3.74034C1.64233 5.19946 2.82429 6.38034 4.28233 6.38034C5.74037 6.38034 6.92233 5.19946 6.92233 3.74034C6.92233 2.2823 5.74037 1.10034 4.28233 1.10034C2.82429 1.10034 1.64233 2.2823 1.64233 3.74034Z" stroke="#F9FBFD" stroke-width="1.5" stroke-linecap="round" stroke-linejoin="round" />
</svg>
  