<svg width="24" height="24" viewBox="0 0 24 24" fill="none" xmlns="http://www.w3.org/2000/svg">
  <path d="M13.9933 3.19955L13.9936 3.19974L19.7535 7.22968C19.7535 7.2297 19.7536 7.22972 19.7536 7.22974C20.2228 7.55821 20.6671 8.09677 20.9945 8.72395C21.3219 9.35117 21.5102 10.0243 21.5102 10.6001V17.3801C21.5102 19.6539 19.6641 21.5001 17.3902 21.5001H6.61023C4.33778 21.5001 2.49023 19.6453 2.49023 17.3701V10.4701C2.49023 9.93562 2.66062 9.29655 2.95881 8.69092C3.25686 8.08558 3.6613 7.55694 4.08775 7.22431L4.08786 7.22423L9.09648 3.3153C9.0967 3.31512 9.09693 3.31495 9.09716 3.31477C10.434 2.27949 12.6031 2.22547 13.9933 3.19955ZM12.0002 19.2501C12.6864 19.2501 13.2502 18.6862 13.2502 18.0001V15.0001C13.2502 14.3139 12.6864 13.7501 12.0002 13.7501C11.3141 13.7501 10.7502 14.3139 10.7502 15.0001V18.0001C10.7502 18.6862 11.3141 19.2501 12.0002 19.2501Z" fill="#E52525" stroke="#E52525" />
</svg>
  