<svg width="16" height="16" viewBox="0 0 16 16" fill="none" xmlns="http://www.w3.org/2000/svg">
  <path d="M10.3866 7.99995C10.3866 9.31995 9.31995 10.3866 7.99995 10.3866C6.67995 10.3866 5.61328 9.31995 5.61328 7.99995C5.61328 6.67995 6.67995 5.61328 7.99995 5.61328C9.31995 5.61328 10.3866 6.67995 10.3866 7.99995Z" stroke="#010206" stroke-opacity="0.4" stroke-width="1.5" stroke-linecap="round" stroke-linejoin="round" />
  <path d="M8.00002 13.5133C10.3534 13.5133 12.5467 12.1266 14.0734 9.72665C14.6734 8.78665 14.6734 7.20665 14.0734 6.26665C12.5467 3.86665 10.3534 2.47998 8.00002 2.47998C5.64668 2.47998 3.45335 3.86665 1.92668 6.26665C1.32668 7.20665 1.32668 8.78665 1.92668 9.72665C3.45335 12.1266 5.64668 13.5133 8.00002 13.5133Z" stroke="#010206" stroke-opacity="0.4" stroke-width="1.5" stroke-linecap="round" stroke-linejoin="round" />
</svg>
  