<svg width="24" height="24" viewBox="0 0 24 24" fill="none" xmlns="http://www.w3.org/2000/svg">
  <path d="M16.38 7.64002V8.08931L16.8267 8.13718C18.1554 8.27954 19.0301 8.67838 19.5887 9.29485C20.401 10.2 20.4014 11.4368 20.2934 12.4114L19.5939 17.9979L19.5938 17.9979L19.5929 18.0062C19.492 18.9387 19.26 19.7798 18.6246 20.3996C17.9928 21.0159 16.8704 21.5 14.79 21.5H9.20999C7.1295 21.5 6.0074 21.0159 5.37566 20.3986C4.74022 19.7778 4.50811 18.9343 4.40712 17.9965L4.40719 17.9965L4.40609 17.9877L3.70657 12.4216C3.59852 11.436 3.59919 10.1997 4.41134 9.29484C4.96992 8.67837 5.84454 8.27954 7.17326 8.13718L7.61999 8.08931V7.64002V7.06002C7.61999 4.79943 9.45184 2.72177 11.5672 2.51779C12.8191 2.40088 14.0189 2.79605 14.9429 3.63934L14.9429 3.63935L14.9451 3.64131C15.8589 4.46547 16.38 5.65003 16.38 6.88002V7.64002ZM11.6152 2.91203L11.6126 2.91227C10.6198 3.00682 9.72051 3.55364 9.07626 4.30108C8.43121 5.04946 8.00999 6.03479 8.00999 7.06002V7.58002V8.08002H8.50999H15.49H15.99V7.58002V6.88002C15.99 5.76092 15.5218 4.68542 14.6853 3.92913C13.8394 3.1634 12.7507 2.80983 11.6152 2.91203ZM7.70999 14.79C7.70999 17.1562 9.63385 19.08 12 19.08C14.3661 19.08 16.29 17.1562 16.29 14.79C16.29 12.4239 14.3661 10.5 12 10.5C9.63385 10.5 7.70999 12.4239 7.70999 14.79Z" fill="#E52525" stroke="#E52525" />
  <path d="M11.0963 15.2035L11.4364 15.5436L11.7894 15.217L13.3894 13.737L13.3894 13.737L13.391 13.7355C13.4861 13.6468 13.6499 13.6499 13.7444 13.7511C13.8329 13.846 13.8299 14.0093 13.7293 14.1039C13.7291 14.1041 13.7289 14.1042 13.7287 14.1044L11.6075 16.0663C11.5414 16.1218 11.4773 16.14 11.4299 16.14C11.3653 16.14 11.3047 16.1177 11.2534 16.0664L10.2634 15.0764C10.1687 14.9817 10.1687 14.8182 10.2634 14.7235C10.3582 14.6288 10.5216 14.6288 10.6163 14.7235L11.0963 15.2035Z" fill="#E52525" stroke="#E52525" />
</svg>
  