<svg width="16" height="16" viewBox="0 0 16 16" fill="none" xmlns="http://www.w3.org/2000/svg">
  <path fill-rule="evenodd" clip-rule="evenodd" d="M8.81415 3.35198C8.56674 3.57242 8.54488 3.95169 8.76532 4.1991L11.4768 7.2423L2.79674 7.2945C2.46538 7.29649 2.19837 7.56673 2.20036 7.89809C2.20235 8.22946 2.47259 8.49647 2.80396 8.49447L11.5086 8.44213L8.76532 11.521C8.54488 11.7685 8.56674 12.1477 8.81415 12.3682C9.06156 12.5886 9.44083 12.5667 9.66127 12.3193L13.2252 8.31942C13.2252 8.31939 13.2252 8.31937 13.2252 8.31935C13.2253 8.31926 13.2254 8.31917 13.2255 8.31909C13.4587 8.05739 13.4587 7.66276 13.2255 7.40106C13.2254 7.40098 13.2253 7.40089 13.2252 7.40081C13.2252 7.40078 13.2252 7.40076 13.2252 7.40073L9.66127 3.40081C9.44083 3.1534 9.06156 3.13154 8.81415 3.35198Z" fill="white" />
</svg>
  