<svg width="16" height="16" viewBox="0 0 16 16" fill="none" xmlns="http://www.w3.org/2000/svg">
  <path d="M14 3.98665C11.78 3.76665 9.54667 3.65332 7.32 3.65332C6 3.65332 4.68 3.71999 3.36 3.85332L2 3.98665" stroke="#010206" stroke-width="1.5" stroke-linecap="round" stroke-linejoin="round" />
  <path d="M5.66663 3.31331L5.81329 2.43998C5.91996 1.80665 5.99996 1.33331 7.12663 1.33331H8.87329C9.99996 1.33331 10.0866 1.83331 10.1866 2.44665L10.3333 3.31331" stroke="#010206" stroke-width="1.5" stroke-linecap="round" stroke-linejoin="round" />
  <path d="M12.5667 6.09332L12.1334 12.8067C12.06 13.8533 12 14.6667 10.14 14.6667H5.86002C4.00002 14.6667 3.94002 13.8533 3.86668 12.8067L3.43335 6.09332" stroke="#010206" stroke-width="1.5" stroke-linecap="round" stroke-linejoin="round" />
  <path d="M6.88672 11H9.10672" stroke="#010206" stroke-width="1.5" stroke-linecap="round" stroke-linejoin="round" />
  <path d="M6.33337 8.33331H9.66671" stroke="#010206" stroke-width="1.5" stroke-linecap="round" stroke-linejoin="round" />
</svg>
  