<svg width="24" height="24" viewBox="0 0 24 24" fill="none" xmlns="http://www.w3.org/2000/svg">
  <path d="M18.9484 14.1913L18.9485 14.1913L18.9476 14.1815C18.933 14.0313 18.991 13.8857 19.0934 13.7832L19.0936 13.7833L19.1029 13.7735C19.1803 13.6918 19.2949 13.6396 19.4399 13.6396H20.9375C20.9437 13.6402 20.9477 13.6413 20.9499 13.6421V14.6389C20.949 14.6392 20.9478 14.6394 20.9461 14.6396H19.4999C19.1915 14.6396 18.9655 14.413 18.9484 14.1913Z" fill="#E52525" stroke="#E52525" />
  <path d="M16.9667 14.7969L16.9666 14.7969L16.9687 14.8043C17.2983 15.9835 18.4323 16.6896 19.5802 16.6896H20.4502C20.7241 16.6896 20.9502 16.9158 20.9502 17.1896V17.3796C20.9502 19.1735 19.4841 20.6396 17.6902 20.6396H6.2102C4.41634 20.6396 2.9502 19.1735 2.9502 17.3796V10.6496C2.9502 9.58317 3.46106 8.63933 4.24949 8.05018L4.2495 8.05019L4.25322 8.04736C4.79843 7.63196 5.47253 7.38965 6.2102 7.38965H17.6902C19.4841 7.38965 20.9502 8.85579 20.9502 10.6496V11.0896C20.9502 11.3635 20.7241 11.5896 20.4502 11.5896H19.4302C18.7383 11.5896 18.1005 11.8619 17.6361 12.3366C17.0168 12.9463 16.7193 13.857 16.9667 14.7969Z" fill="#E52525" stroke="#E52525" />
  <path d="M16.2001 4.82C16.4701 5.09 16.2401 5.51 15.8601 5.51L8.18006 5.5C7.74006 5.5 7.51006 4.96 7.83006 4.65L9.45006 3.02C10.8201 1.66 13.0401 1.66 14.4101 3.02L16.1601 4.79C16.1701 4.8 16.1901 4.81 16.2001 4.82Z" fill="#E52525" />
</svg>
  