<svg width="48" height="48" viewBox="0 0 48 48" fill="none" xmlns="http://www.w3.org/2000/svg">
  <rect opacity="0.2" width="48" height="48" rx="8" fill="white" />
  <path d="M26.8199 16.2598C26.6213 16.6155 26.4443 16.9828 26.2899 17.3598C24.7727 17.1198 23.2272 17.1198 21.7099 17.3598C21.5555 16.9828 21.3785 16.6155 21.1799 16.2598C19.7507 16.504 18.3613 16.9413 17.0499 17.5598C14.7049 20.9441 13.6414 25.0527 14.0499 29.1498C15.5782 30.2986 17.2934 31.1748 19.1199 31.7398C19.5358 31.1904 19.907 30.6085 20.2299 29.9998C19.634 29.78 19.0612 29.502 18.5199 29.1698C18.6684 29.071 18.8088 28.9606 18.9399 28.8398C20.5184 29.6001 22.2479 29.9949 23.9999 29.9949C25.7519 29.9949 27.4815 29.6001 29.0599 28.8398C29.1999 28.9598 29.3399 29.0698 29.4799 29.1698C28.9357 29.4994 28.3635 29.7805 27.7699 30.0098C28.0794 30.6323 28.4407 31.2277 28.8499 31.7898C30.6742 31.2268 32.3864 30.3504 33.9099 29.1998C34.3283 25.102 33.2639 20.9899 30.9099 17.6098C29.6132 16.9785 28.2376 16.5244 26.8199 16.2598ZM20.6799 26.8098C20.1795 26.7738 19.7125 26.5455 19.3768 26.1725C19.0412 25.7996 18.8631 25.3112 18.8799 24.8098C18.8606 24.3077 19.0378 23.8178 19.3739 23.4444C19.7101 23.0709 20.1786 22.8432 20.6799 22.8098C21.1813 22.8432 21.6498 23.0709 21.9859 23.4444C22.322 23.8178 22.4993 24.3077 22.4799 24.8098C22.4993 25.3118 22.322 25.8017 21.9859 26.1752C21.6498 26.5486 21.1813 26.7763 20.6799 26.8098ZM27.3199 26.8098C26.8195 26.7738 26.3525 26.5455 26.0168 26.1725C25.6812 25.7996 25.5031 25.3112 25.5199 24.8098C25.5006 24.3077 25.6778 23.8178 26.0139 23.4444C26.3501 23.0709 26.8186 22.8432 27.3199 22.8098C27.8222 22.8407 28.2922 23.0677 28.6289 23.4417C28.9655 23.8158 29.1418 24.307 29.1199 24.8098C29.1418 25.3125 28.9655 25.8038 28.6289 26.1778C28.2922 26.5519 27.8222 26.7788 27.3199 26.8098Z" fill="white" />
</svg>
  