<svg width="48" height="48" viewBox="0 0 48 48" fill="none" xmlns="http://www.w3.org/2000/svg">
  <path d="M32.4701 14.0001H15.5301C15.3396 13.9975 15.1506 14.0324 14.9736 14.1028C14.7967 14.1733 14.6354 14.2779 14.4989 14.4107C14.3624 14.5434 14.2533 14.7018 14.1781 14.8767C14.1028 15.0517 14.0627 15.2397 14.0601 15.4301V32.5701C14.0627 32.7606 14.1028 32.9486 14.1781 33.1235C14.2533 33.2985 14.3624 33.4568 14.4989 33.5896C14.6354 33.7224 14.7967 33.827 14.9736 33.8975C15.1506 33.9679 15.3396 34.0028 15.5301 34.0001H32.4701C32.6605 34.0028 32.8496 33.9679 33.0265 33.8975C33.2034 33.827 33.3648 33.7224 33.5013 33.5896C33.6378 33.4568 33.7468 33.2985 33.8221 33.1235C33.8974 32.9486 33.9375 32.7606 33.9401 32.5701V15.4301C33.9375 15.2397 33.8974 15.0517 33.8221 14.8767C33.7468 14.7018 33.6378 14.5434 33.5013 14.4107C33.3648 14.2779 33.2034 14.1733 33.0265 14.1028C32.8496 14.0324 32.6605 13.9975 32.4701 14.0001ZM20.0901 30.7401H17.0901V21.7401H20.0901V30.7401ZM18.5901 20.4801C18.1763 20.4801 17.7795 20.3158 17.487 20.0232C17.1944 19.7307 17.0301 19.3339 17.0301 18.9201C17.0301 18.5064 17.1944 18.1096 17.487 17.8171C17.7795 17.5245 18.1763 17.3601 18.5901 17.3601C18.8098 17.3352 19.0322 17.357 19.2429 17.424C19.4536 17.4911 19.6478 17.6018 19.8127 17.7491C19.9776 17.8964 20.1096 18.0768 20.1999 18.2786C20.2903 18.4804 20.337 18.699 20.337 18.9201C20.337 19.1412 20.2903 19.3599 20.1999 19.5617C20.1096 19.7635 19.9776 19.9439 19.8127 20.0912C19.6478 20.2385 19.4536 20.3492 19.2429 20.4163C19.0322 20.4833 18.8098 20.5051 18.5901 20.4801ZM30.9101 30.7401H27.9101V25.9101C27.9101 24.7001 27.4801 23.9101 26.3901 23.9101C26.0527 23.9126 25.7242 24.0184 25.4489 24.2133C25.1735 24.4082 24.9645 24.6828 24.8501 25.0001C24.7718 25.2352 24.7379 25.4827 24.7501 25.7301V30.7301H21.7501C21.7501 30.7301 21.7501 22.5501 21.7501 21.7301H24.7501V23.0001C25.0226 22.5272 25.419 22.1377 25.8965 21.8733C26.374 21.609 26.9146 21.48 27.4601 21.5001C29.4601 21.5001 30.9101 22.7901 30.9101 25.5601V30.7401Z" fill="white" />
  <rect opacity="0.2" width="48" height="48" rx="8" fill="white" />
</svg>
  