<svg width="48" height="48" viewBox="0 0 48 48" fill="none" xmlns="http://www.w3.org/2000/svg">
  <path d="M34 17.8002C33.2483 18.1263 32.4534 18.3419 31.64 18.4402C32.4982 17.9275 33.1413 17.121 33.45 16.1702C32.6436 16.6503 31.7608 16.9885 30.84 17.1702C30.2245 16.5028 29.405 16.0585 28.5098 15.9071C27.6147 15.7556 26.6945 15.9056 25.8938 16.3334C25.093 16.7612 24.4569 17.4427 24.0852 18.271C23.7135 19.0994 23.6273 20.0276 23.84 20.9102C22.2094 20.8277 20.6144 20.4032 19.1587 19.6641C17.7029 18.925 16.4188 17.8879 15.39 16.6202C15.0291 17.2504 14.8395 17.964 14.84 18.6902C14.8387 19.3646 15.0042 20.0288 15.3218 20.6238C15.6393 21.2187 16.099 21.7259 16.66 22.1002C16.008 22.0825 15.3699 21.9075 14.8 21.5902V21.6402C14.8049 22.5851 15.136 23.4993 15.7373 24.2282C16.3386 24.957 17.1733 25.4559 18.1 25.6402C17.7433 25.7488 17.3729 25.806 17 25.8102C16.7419 25.8072 16.4844 25.7838 16.23 25.7402C16.4939 26.553 17.0046 27.2634 17.6911 27.7724C18.3775 28.2814 19.2056 28.5638 20.06 28.5802C18.6172 29.7155 16.8359 30.3351 15 30.3402C14.6657 30.3413 14.3317 30.3213 14 30.2802C15.8744 31.4905 18.0588 32.1329 20.29 32.1302C21.8297 32.1462 23.3571 31.8552 24.7831 31.2743C26.2091 30.6934 27.505 29.8341 28.5952 28.7467C29.6854 27.6593 30.548 26.3656 31.1326 24.9411C31.7172 23.5166 32.012 21.9899 32 20.4502C32 20.2802 32 20.1002 32 19.9202C32.7847 19.335 33.4615 18.6176 34 17.8002Z" fill="white" />
  <rect opacity="0.2" width="48" height="48" rx="8" fill="white" />
</svg>
  