<svg width="16" height="16" viewBox="0 0 16 16" fill="none" xmlns="http://www.w3.org/2000/svg">
  <path d="M7.59956 3.85284L7.99992 4.38797L8.40027 3.85284C8.98368 3.07305 9.91816 2.56665 10.9599 2.56665C12.7281 2.56665 14.1666 4.00712 14.1666 5.79332C14.1666 6.53227 14.0488 7.21373 13.8442 7.84607L13.8432 7.84933C13.3523 9.4027 12.3443 10.6605 11.2482 11.6025C10.1499 12.5463 8.99199 13.1483 8.25219 13.4L8.25218 13.3999L8.24684 13.4018C8.20367 13.4171 8.11417 13.4333 7.99992 13.4333C7.88566 13.4333 7.79617 13.4171 7.753 13.4018L7.75301 13.4018L7.74764 13.4C7.00785 13.1483 5.84992 12.5463 4.75165 11.6025C3.65558 10.6605 2.64755 9.4027 2.15668 7.84933L2.15669 7.84932L2.15564 7.84607C1.95106 7.21373 1.83325 6.53227 1.83325 5.79332C1.83325 4.00712 3.27173 2.56665 5.03992 2.56665C6.08168 2.56665 7.01616 3.07305 7.59956 3.85284Z" fill="#E52525" stroke="#E52525" />
</svg>
  